<mxfile host="Electron" modified="2023-10-11T18:42:42.354Z" agent="Mozilla/5.0 (Windows NT 10.0; Win64; x64) AppleWebKit/537.36 (KHTML, like Gecko) draw.io/22.0.2 Chrome/114.0.5735.289 Electron/25.8.4 Safari/537.36" etag="LpOHuHg1A7eHZvUX828B" version="22.0.2" type="device">
  <diagram name="Page-1" id="2YBvvXClWsGukQMizWep">
    <mxGraphModel dx="2620" dy="1030" grid="1" gridSize="10" guides="1" tooltips="1" connect="1" arrows="1" fold="1" page="1" pageScale="1" pageWidth="850" pageHeight="1100" math="0" shadow="0">
      <root>
        <mxCell id="0" />
        <mxCell id="1" parent="0" />
        <mxCell id="aM9ryv3xv72pqoxQDRHE-1" value="Administrator" style="shape=umlLifeline;perimeter=lifelinePerimeter;whiteSpace=wrap;html=1;container=0;dropTarget=0;collapsible=0;recursiveResize=0;outlineConnect=0;portConstraint=eastwest;newEdgeStyle={&quot;edgeStyle&quot;:&quot;elbowEdgeStyle&quot;,&quot;elbow&quot;:&quot;vertical&quot;,&quot;curved&quot;:0,&quot;rounded&quot;:0};" parent="1" vertex="1">
          <mxGeometry x="-730" y="40" width="100" height="300" as="geometry" />
        </mxCell>
        <mxCell id="aM9ryv3xv72pqoxQDRHE-2" value="" style="html=1;points=[];perimeter=orthogonalPerimeter;outlineConnect=0;targetShapes=umlLifeline;portConstraint=eastwest;newEdgeStyle={&quot;edgeStyle&quot;:&quot;elbowEdgeStyle&quot;,&quot;elbow&quot;:&quot;vertical&quot;,&quot;curved&quot;:0,&quot;rounded&quot;:0};" parent="aM9ryv3xv72pqoxQDRHE-1" vertex="1">
          <mxGeometry x="45" y="70" width="10" height="190" as="geometry" />
        </mxCell>
        <mxCell id="aM9ryv3xv72pqoxQDRHE-5" value="Interface" style="shape=umlLifeline;perimeter=lifelinePerimeter;whiteSpace=wrap;html=1;container=0;dropTarget=0;collapsible=0;recursiveResize=0;outlineConnect=0;portConstraint=eastwest;newEdgeStyle={&quot;edgeStyle&quot;:&quot;elbowEdgeStyle&quot;,&quot;elbow&quot;:&quot;vertical&quot;,&quot;curved&quot;:0,&quot;rounded&quot;:0};" parent="1" vertex="1">
          <mxGeometry x="-550" y="40" width="100" height="300" as="geometry" />
        </mxCell>
        <mxCell id="aM9ryv3xv72pqoxQDRHE-6" value="" style="html=1;points=[];perimeter=orthogonalPerimeter;outlineConnect=0;targetShapes=umlLifeline;portConstraint=eastwest;newEdgeStyle={&quot;edgeStyle&quot;:&quot;elbowEdgeStyle&quot;,&quot;elbow&quot;:&quot;vertical&quot;,&quot;curved&quot;:0,&quot;rounded&quot;:0};" parent="aM9ryv3xv72pqoxQDRHE-5" vertex="1">
          <mxGeometry x="45" y="80" width="10" height="170" as="geometry" />
        </mxCell>
        <mxCell id="aM9ryv3xv72pqoxQDRHE-7" value="1: Select CSV with technicians" style="html=1;verticalAlign=bottom;endArrow=block;edgeStyle=elbowEdgeStyle;elbow=vertical;curved=0;rounded=0;" parent="1" source="aM9ryv3xv72pqoxQDRHE-2" target="aM9ryv3xv72pqoxQDRHE-6" edge="1">
          <mxGeometry relative="1" as="geometry">
            <mxPoint x="-575" y="130" as="sourcePoint" />
            <Array as="points">
              <mxPoint x="-590" y="120" />
            </Array>
          </mxGeometry>
        </mxCell>
        <mxCell id="aM9ryv3xv72pqoxQDRHE-8" value="6: Show confirmation" style="html=1;verticalAlign=bottom;endArrow=open;dashed=1;endSize=8;edgeStyle=elbowEdgeStyle;elbow=vertical;curved=0;rounded=0;" parent="1" source="aM9ryv3xv72pqoxQDRHE-6" target="aM9ryv3xv72pqoxQDRHE-2" edge="1">
          <mxGeometry relative="1" as="geometry">
            <mxPoint x="-575" y="205" as="targetPoint" />
            <Array as="points">
              <mxPoint x="-580" y="280" />
            </Array>
            <mxPoint as="offset" />
          </mxGeometry>
        </mxCell>
        <mxCell id="18WVjn5391nZx_TQ4POn-1" value="Bulk Load Microservice" style="shape=umlLifeline;perimeter=lifelinePerimeter;whiteSpace=wrap;html=1;container=0;dropTarget=0;collapsible=0;recursiveResize=0;outlineConnect=0;portConstraint=eastwest;newEdgeStyle={&quot;edgeStyle&quot;:&quot;elbowEdgeStyle&quot;,&quot;elbow&quot;:&quot;vertical&quot;,&quot;curved&quot;:0,&quot;rounded&quot;:0};" parent="1" vertex="1">
          <mxGeometry x="-370" y="40" width="100" height="300" as="geometry" />
        </mxCell>
        <mxCell id="18WVjn5391nZx_TQ4POn-2" value="" style="html=1;points=[];perimeter=orthogonalPerimeter;outlineConnect=0;targetShapes=umlLifeline;portConstraint=eastwest;newEdgeStyle={&quot;edgeStyle&quot;:&quot;elbowEdgeStyle&quot;,&quot;elbow&quot;:&quot;vertical&quot;,&quot;curved&quot;:0,&quot;rounded&quot;:0};" parent="18WVjn5391nZx_TQ4POn-1" vertex="1">
          <mxGeometry x="45" y="80" width="10" height="170" as="geometry" />
        </mxCell>
        <mxCell id="18WVjn5391nZx_TQ4POn-14" value="" style="html=1;points=[];perimeter=orthogonalPerimeter;outlineConnect=0;targetShapes=umlLifeline;portConstraint=eastwest;newEdgeStyle={&quot;edgeStyle&quot;:&quot;elbowEdgeStyle&quot;,&quot;elbow&quot;:&quot;vertical&quot;,&quot;curved&quot;:0,&quot;rounded&quot;:0};" parent="18WVjn5391nZx_TQ4POn-1" vertex="1">
          <mxGeometry x="45" y="80" width="10" height="170" as="geometry" />
        </mxCell>
        <mxCell id="18WVjn5391nZx_TQ4POn-12" value="Database" style="shape=umlLifeline;perimeter=lifelinePerimeter;whiteSpace=wrap;html=1;container=0;dropTarget=0;collapsible=0;recursiveResize=0;outlineConnect=0;portConstraint=eastwest;newEdgeStyle={&quot;edgeStyle&quot;:&quot;elbowEdgeStyle&quot;,&quot;elbow&quot;:&quot;vertical&quot;,&quot;curved&quot;:0,&quot;rounded&quot;:0};" parent="1" vertex="1">
          <mxGeometry x="-190" y="40" width="100" height="300" as="geometry" />
        </mxCell>
        <mxCell id="18WVjn5391nZx_TQ4POn-13" value="" style="html=1;points=[];perimeter=orthogonalPerimeter;outlineConnect=0;targetShapes=umlLifeline;portConstraint=eastwest;newEdgeStyle={&quot;edgeStyle&quot;:&quot;elbowEdgeStyle&quot;,&quot;elbow&quot;:&quot;vertical&quot;,&quot;curved&quot;:0,&quot;rounded&quot;:0};" parent="18WVjn5391nZx_TQ4POn-12" vertex="1">
          <mxGeometry x="45" y="80" width="10" height="170" as="geometry" />
        </mxCell>
        <mxCell id="18WVjn5391nZx_TQ4POn-15" value="" style="edgeStyle=elbowEdgeStyle;rounded=0;orthogonalLoop=1;jettySize=auto;html=1;elbow=vertical;curved=0;" parent="1" source="aM9ryv3xv72pqoxQDRHE-6" target="18WVjn5391nZx_TQ4POn-14" edge="1">
          <mxGeometry relative="1" as="geometry">
            <Array as="points">
              <mxPoint x="-400" y="160" />
            </Array>
          </mxGeometry>
        </mxCell>
        <mxCell id="18WVjn5391nZx_TQ4POn-16" value="2: Send file to process" style="edgeLabel;html=1;align=center;verticalAlign=middle;resizable=0;points=[];" parent="18WVjn5391nZx_TQ4POn-15" vertex="1" connectable="0">
          <mxGeometry x="-0.0246" relative="1" as="geometry">
            <mxPoint y="-10" as="offset" />
          </mxGeometry>
        </mxCell>
        <mxCell id="18WVjn5391nZx_TQ4POn-21" style="edgeStyle=elbowEdgeStyle;rounded=0;orthogonalLoop=1;jettySize=auto;html=1;elbow=vertical;curved=0;" parent="1" source="18WVjn5391nZx_TQ4POn-14" target="18WVjn5391nZx_TQ4POn-13" edge="1">
          <mxGeometry relative="1" as="geometry">
            <mxPoint x="-150" y="180" as="targetPoint" />
            <Array as="points">
              <mxPoint x="-250" y="180" />
            </Array>
          </mxGeometry>
        </mxCell>
        <mxCell id="18WVjn5391nZx_TQ4POn-22" value="3: Insert technician to BD" style="edgeLabel;html=1;align=center;verticalAlign=middle;resizable=0;points=[];" parent="1" vertex="1" connectable="0">
          <mxGeometry x="-230" y="170" as="geometry">
            <mxPoint x="-14" as="offset" />
          </mxGeometry>
        </mxCell>
        <mxCell id="18WVjn5391nZx_TQ4POn-23" value="4: Confirm insertion" style="html=1;verticalAlign=bottom;endArrow=open;dashed=1;endSize=8;edgeStyle=elbowEdgeStyle;elbow=vertical;curved=0;rounded=0;" parent="1" edge="1">
          <mxGeometry relative="1" as="geometry">
            <mxPoint x="-315" y="210" as="targetPoint" />
            <Array as="points">
              <mxPoint x="-220" y="210" />
            </Array>
            <mxPoint x="-145" y="210" as="sourcePoint" />
            <mxPoint as="offset" />
          </mxGeometry>
        </mxCell>
        <mxCell id="18WVjn5391nZx_TQ4POn-24" value="5: Reports loading success" style="html=1;verticalAlign=bottom;endArrow=open;dashed=1;endSize=8;edgeStyle=elbowEdgeStyle;elbow=horizontal;curved=0;rounded=0;" parent="1" target="aM9ryv3xv72pqoxQDRHE-6" edge="1">
          <mxGeometry relative="1" as="geometry">
            <mxPoint x="-490" y="250" as="targetPoint" />
            <Array as="points">
              <mxPoint x="-405" y="250" />
            </Array>
            <mxPoint x="-330" y="250" as="sourcePoint" />
            <mxPoint as="offset" />
          </mxGeometry>
        </mxCell>
        <mxCell id="18WVjn5391nZx_TQ4POn-25" value="Administrator" style="shape=umlLifeline;perimeter=lifelinePerimeter;whiteSpace=wrap;html=1;container=0;dropTarget=0;collapsible=0;recursiveResize=0;outlineConnect=0;portConstraint=eastwest;newEdgeStyle={&quot;edgeStyle&quot;:&quot;elbowEdgeStyle&quot;,&quot;elbow&quot;:&quot;vertical&quot;,&quot;curved&quot;:0,&quot;rounded&quot;:0};" parent="1" vertex="1">
          <mxGeometry x="-710" y="440" width="100" height="300" as="geometry" />
        </mxCell>
        <mxCell id="18WVjn5391nZx_TQ4POn-26" value="" style="html=1;points=[];perimeter=orthogonalPerimeter;outlineConnect=0;targetShapes=umlLifeline;portConstraint=eastwest;newEdgeStyle={&quot;edgeStyle&quot;:&quot;elbowEdgeStyle&quot;,&quot;elbow&quot;:&quot;vertical&quot;,&quot;curved&quot;:0,&quot;rounded&quot;:0};" parent="18WVjn5391nZx_TQ4POn-25" vertex="1">
          <mxGeometry x="45" y="70" width="10" height="190" as="geometry" />
        </mxCell>
        <mxCell id="18WVjn5391nZx_TQ4POn-27" value="Interface" style="shape=umlLifeline;perimeter=lifelinePerimeter;whiteSpace=wrap;html=1;container=0;dropTarget=0;collapsible=0;recursiveResize=0;outlineConnect=0;portConstraint=eastwest;newEdgeStyle={&quot;edgeStyle&quot;:&quot;elbowEdgeStyle&quot;,&quot;elbow&quot;:&quot;vertical&quot;,&quot;curved&quot;:0,&quot;rounded&quot;:0};" parent="1" vertex="1">
          <mxGeometry x="-530" y="440" width="100" height="300" as="geometry" />
        </mxCell>
        <mxCell id="18WVjn5391nZx_TQ4POn-28" value="" style="html=1;points=[];perimeter=orthogonalPerimeter;outlineConnect=0;targetShapes=umlLifeline;portConstraint=eastwest;newEdgeStyle={&quot;edgeStyle&quot;:&quot;elbowEdgeStyle&quot;,&quot;elbow&quot;:&quot;vertical&quot;,&quot;curved&quot;:0,&quot;rounded&quot;:0};" parent="18WVjn5391nZx_TQ4POn-27" vertex="1">
          <mxGeometry x="45" y="80" width="10" height="170" as="geometry" />
        </mxCell>
        <mxCell id="18WVjn5391nZx_TQ4POn-29" value="1: Enter damage information" style="html=1;verticalAlign=bottom;endArrow=block;edgeStyle=elbowEdgeStyle;elbow=vertical;curved=0;rounded=0;" parent="1" source="18WVjn5391nZx_TQ4POn-26" target="18WVjn5391nZx_TQ4POn-28" edge="1">
          <mxGeometry relative="1" as="geometry">
            <mxPoint x="-555" y="530" as="sourcePoint" />
            <Array as="points">
              <mxPoint x="-570" y="520" />
            </Array>
            <mxPoint as="offset" />
          </mxGeometry>
        </mxCell>
        <mxCell id="18WVjn5391nZx_TQ4POn-30" value="6: Show confirmation" style="html=1;verticalAlign=bottom;endArrow=open;dashed=1;endSize=8;edgeStyle=elbowEdgeStyle;elbow=vertical;curved=0;rounded=0;" parent="1" source="18WVjn5391nZx_TQ4POn-28" target="18WVjn5391nZx_TQ4POn-26" edge="1">
          <mxGeometry relative="1" as="geometry">
            <mxPoint x="-555" y="605" as="targetPoint" />
            <Array as="points">
              <mxPoint x="-560" y="680" />
            </Array>
            <mxPoint as="offset" />
          </mxGeometry>
        </mxCell>
        <mxCell id="18WVjn5391nZx_TQ4POn-31" value="&lt;font style=&quot;font-size: 10px;&quot;&gt;Damage and Order Management Service&lt;/font&gt;" style="shape=umlLifeline;perimeter=lifelinePerimeter;whiteSpace=wrap;html=1;container=0;dropTarget=0;collapsible=0;recursiveResize=0;outlineConnect=0;portConstraint=eastwest;newEdgeStyle={&quot;edgeStyle&quot;:&quot;elbowEdgeStyle&quot;,&quot;elbow&quot;:&quot;vertical&quot;,&quot;curved&quot;:0,&quot;rounded&quot;:0};" parent="1" vertex="1">
          <mxGeometry x="-260" y="440" width="100" height="300" as="geometry" />
        </mxCell>
        <mxCell id="18WVjn5391nZx_TQ4POn-32" value="" style="html=1;points=[];perimeter=orthogonalPerimeter;outlineConnect=0;targetShapes=umlLifeline;portConstraint=eastwest;newEdgeStyle={&quot;edgeStyle&quot;:&quot;elbowEdgeStyle&quot;,&quot;elbow&quot;:&quot;vertical&quot;,&quot;curved&quot;:0,&quot;rounded&quot;:0};" parent="18WVjn5391nZx_TQ4POn-31" vertex="1">
          <mxGeometry x="45" y="80" width="10" height="170" as="geometry" />
        </mxCell>
        <mxCell id="18WVjn5391nZx_TQ4POn-33" value="" style="html=1;points=[];perimeter=orthogonalPerimeter;outlineConnect=0;targetShapes=umlLifeline;portConstraint=eastwest;newEdgeStyle={&quot;edgeStyle&quot;:&quot;elbowEdgeStyle&quot;,&quot;elbow&quot;:&quot;vertical&quot;,&quot;curved&quot;:0,&quot;rounded&quot;:0};" parent="18WVjn5391nZx_TQ4POn-31" vertex="1">
          <mxGeometry x="45" y="80" width="10" height="170" as="geometry" />
        </mxCell>
        <mxCell id="18WVjn5391nZx_TQ4POn-34" value="Database" style="shape=umlLifeline;perimeter=lifelinePerimeter;whiteSpace=wrap;html=1;container=0;dropTarget=0;collapsible=0;recursiveResize=0;outlineConnect=0;portConstraint=eastwest;newEdgeStyle={&quot;edgeStyle&quot;:&quot;elbowEdgeStyle&quot;,&quot;elbow&quot;:&quot;vertical&quot;,&quot;curved&quot;:0,&quot;rounded&quot;:0};" parent="1" vertex="1">
          <mxGeometry x="-10" y="440" width="100" height="300" as="geometry" />
        </mxCell>
        <mxCell id="18WVjn5391nZx_TQ4POn-35" value="" style="html=1;points=[];perimeter=orthogonalPerimeter;outlineConnect=0;targetShapes=umlLifeline;portConstraint=eastwest;newEdgeStyle={&quot;edgeStyle&quot;:&quot;elbowEdgeStyle&quot;,&quot;elbow&quot;:&quot;vertical&quot;,&quot;curved&quot;:0,&quot;rounded&quot;:0};" parent="18WVjn5391nZx_TQ4POn-34" vertex="1">
          <mxGeometry x="45" y="80" width="10" height="170" as="geometry" />
        </mxCell>
        <mxCell id="18WVjn5391nZx_TQ4POn-36" value="" style="edgeStyle=elbowEdgeStyle;rounded=0;orthogonalLoop=1;jettySize=auto;html=1;elbow=vertical;curved=0;" parent="1" source="18WVjn5391nZx_TQ4POn-28" target="18WVjn5391nZx_TQ4POn-33" edge="1">
          <mxGeometry relative="1" as="geometry">
            <Array as="points">
              <mxPoint x="-380" y="560" />
            </Array>
          </mxGeometry>
        </mxCell>
        <mxCell id="18WVjn5391nZx_TQ4POn-37" value="2: Send information about the reported damage" style="edgeLabel;html=1;align=center;verticalAlign=middle;resizable=0;points=[];" parent="18WVjn5391nZx_TQ4POn-36" vertex="1" connectable="0">
          <mxGeometry x="-0.0246" relative="1" as="geometry">
            <mxPoint y="-10" as="offset" />
          </mxGeometry>
        </mxCell>
        <mxCell id="18WVjn5391nZx_TQ4POn-38" style="edgeStyle=elbowEdgeStyle;rounded=0;orthogonalLoop=1;jettySize=auto;html=1;elbow=vertical;curved=0;" parent="1" target="18WVjn5391nZx_TQ4POn-35" edge="1">
          <mxGeometry relative="1" as="geometry">
            <mxPoint x="30" y="580" as="targetPoint" />
            <Array as="points">
              <mxPoint x="-210" y="580" />
            </Array>
            <mxPoint x="-195" y="580" as="sourcePoint" />
          </mxGeometry>
        </mxCell>
        <mxCell id="18WVjn5391nZx_TQ4POn-39" value="3: Create damage record" style="edgeLabel;html=1;align=center;verticalAlign=middle;resizable=0;points=[];" parent="1" vertex="1" connectable="0">
          <mxGeometry x="-70" y="570" as="geometry">
            <mxPoint x="-14" as="offset" />
          </mxGeometry>
        </mxCell>
        <mxCell id="18WVjn5391nZx_TQ4POn-40" value="4: Confirm creation" style="html=1;verticalAlign=bottom;endArrow=open;dashed=1;endSize=8;edgeStyle=elbowEdgeStyle;elbow=vertical;curved=0;rounded=0;" parent="1" source="18WVjn5391nZx_TQ4POn-35" target="18WVjn5391nZx_TQ4POn-33" edge="1">
          <mxGeometry relative="1" as="geometry">
            <mxPoint x="-260" y="610" as="targetPoint" />
            <Array as="points">
              <mxPoint x="-200" y="610" />
            </Array>
            <mxPoint x="-125" y="610" as="sourcePoint" />
            <mxPoint as="offset" />
          </mxGeometry>
        </mxCell>
        <mxCell id="18WVjn5391nZx_TQ4POn-41" value="5: Report success in the report" style="html=1;verticalAlign=bottom;endArrow=open;dashed=1;endSize=8;edgeStyle=elbowEdgeStyle;elbow=horizontal;curved=0;rounded=0;" parent="1" source="18WVjn5391nZx_TQ4POn-31" target="18WVjn5391nZx_TQ4POn-28" edge="1">
          <mxGeometry x="-0.0037" relative="1" as="geometry">
            <mxPoint x="-470" y="650" as="targetPoint" />
            <Array as="points">
              <mxPoint x="-385" y="650" />
            </Array>
            <mxPoint x="-310" y="650" as="sourcePoint" />
            <mxPoint as="offset" />
          </mxGeometry>
        </mxCell>
        <mxCell id="18WVjn5391nZx_TQ4POn-42" value="Automatic assignment of technician to an order" style="text;html=1;align=center;verticalAlign=middle;resizable=0;points=[];autosize=1;strokeColor=none;fillColor=none;" parent="1" vertex="1">
          <mxGeometry x="-725" y="1018" width="270" height="30" as="geometry" />
        </mxCell>
        <mxCell id="18WVjn5391nZx_TQ4POn-78" value="Automatic Programmer" style="shape=umlLifeline;perimeter=lifelinePerimeter;whiteSpace=wrap;html=1;container=0;dropTarget=0;collapsible=0;recursiveResize=0;outlineConnect=0;portConstraint=eastwest;newEdgeStyle={&quot;edgeStyle&quot;:&quot;elbowEdgeStyle&quot;,&quot;elbow&quot;:&quot;vertical&quot;,&quot;curved&quot;:0,&quot;rounded&quot;:0};" parent="1" vertex="1">
          <mxGeometry x="-670" y="1080" width="100" height="300" as="geometry" />
        </mxCell>
        <mxCell id="18WVjn5391nZx_TQ4POn-79" value="" style="html=1;points=[];perimeter=orthogonalPerimeter;outlineConnect=0;targetShapes=umlLifeline;portConstraint=eastwest;newEdgeStyle={&quot;edgeStyle&quot;:&quot;elbowEdgeStyle&quot;,&quot;elbow&quot;:&quot;vertical&quot;,&quot;curved&quot;:0,&quot;rounded&quot;:0};" parent="18WVjn5391nZx_TQ4POn-78" vertex="1">
          <mxGeometry x="45" y="70" width="10" height="190" as="geometry" />
        </mxCell>
        <mxCell id="18WVjn5391nZx_TQ4POn-80" value="Technician Scheduling Service" style="shape=umlLifeline;perimeter=lifelinePerimeter;whiteSpace=wrap;html=1;container=0;dropTarget=0;collapsible=0;recursiveResize=0;outlineConnect=0;portConstraint=eastwest;newEdgeStyle={&quot;edgeStyle&quot;:&quot;elbowEdgeStyle&quot;,&quot;elbow&quot;:&quot;vertical&quot;,&quot;curved&quot;:0,&quot;rounded&quot;:0};" parent="1" vertex="1">
          <mxGeometry x="-490" y="1080" width="110" height="300" as="geometry" />
        </mxCell>
        <mxCell id="18WVjn5391nZx_TQ4POn-81" value="" style="html=1;points=[];perimeter=orthogonalPerimeter;outlineConnect=0;targetShapes=umlLifeline;portConstraint=eastwest;newEdgeStyle={&quot;edgeStyle&quot;:&quot;elbowEdgeStyle&quot;,&quot;elbow&quot;:&quot;vertical&quot;,&quot;curved&quot;:0,&quot;rounded&quot;:0};" parent="18WVjn5391nZx_TQ4POn-80" vertex="1">
          <mxGeometry x="50" y="80" width="10" height="170" as="geometry" />
        </mxCell>
        <mxCell id="18WVjn5391nZx_TQ4POn-82" value="1: Assignment process begins" style="html=1;verticalAlign=bottom;endArrow=block;edgeStyle=elbowEdgeStyle;elbow=horizontal;curved=0;rounded=0;" parent="1" source="18WVjn5391nZx_TQ4POn-79" target="18WVjn5391nZx_TQ4POn-81" edge="1">
          <mxGeometry relative="1" as="geometry">
            <mxPoint x="-515" y="1170" as="sourcePoint" />
            <Array as="points">
              <mxPoint x="-530" y="1160" />
            </Array>
            <mxPoint as="offset" />
          </mxGeometry>
        </mxCell>
        <mxCell id="18WVjn5391nZx_TQ4POn-83" value="8: Report assignment success" style="html=1;verticalAlign=bottom;endArrow=open;dashed=1;endSize=8;edgeStyle=elbowEdgeStyle;elbow=vertical;curved=0;rounded=0;" parent="1" source="18WVjn5391nZx_TQ4POn-81" target="18WVjn5391nZx_TQ4POn-79" edge="1">
          <mxGeometry relative="1" as="geometry">
            <mxPoint x="-515" y="1245" as="targetPoint" />
            <Array as="points">
              <mxPoint x="-520" y="1320" />
            </Array>
            <mxPoint as="offset" />
          </mxGeometry>
        </mxCell>
        <mxCell id="18WVjn5391nZx_TQ4POn-84" value="&lt;font style=&quot;font-size: 10px;&quot;&gt;Damage and Order Management Service&lt;/font&gt;" style="shape=umlLifeline;perimeter=lifelinePerimeter;whiteSpace=wrap;html=1;container=0;dropTarget=0;collapsible=0;recursiveResize=0;outlineConnect=0;portConstraint=eastwest;newEdgeStyle={&quot;edgeStyle&quot;:&quot;elbowEdgeStyle&quot;,&quot;elbow&quot;:&quot;vertical&quot;,&quot;curved&quot;:0,&quot;rounded&quot;:0};" parent="1" vertex="1">
          <mxGeometry x="-220" y="1080" width="100" height="300" as="geometry" />
        </mxCell>
        <mxCell id="18WVjn5391nZx_TQ4POn-85" value="" style="html=1;points=[];perimeter=orthogonalPerimeter;outlineConnect=0;targetShapes=umlLifeline;portConstraint=eastwest;newEdgeStyle={&quot;edgeStyle&quot;:&quot;elbowEdgeStyle&quot;,&quot;elbow&quot;:&quot;vertical&quot;,&quot;curved&quot;:0,&quot;rounded&quot;:0};" parent="18WVjn5391nZx_TQ4POn-84" vertex="1">
          <mxGeometry x="45" y="80" width="10" height="170" as="geometry" />
        </mxCell>
        <mxCell id="18WVjn5391nZx_TQ4POn-86" value="" style="html=1;points=[];perimeter=orthogonalPerimeter;outlineConnect=0;targetShapes=umlLifeline;portConstraint=eastwest;newEdgeStyle={&quot;edgeStyle&quot;:&quot;elbowEdgeStyle&quot;,&quot;elbow&quot;:&quot;vertical&quot;,&quot;curved&quot;:0,&quot;rounded&quot;:0};" parent="18WVjn5391nZx_TQ4POn-84" vertex="1">
          <mxGeometry x="45" y="80" width="10" height="170" as="geometry" />
        </mxCell>
        <mxCell id="18WVjn5391nZx_TQ4POn-87" value="Database" style="shape=umlLifeline;perimeter=lifelinePerimeter;whiteSpace=wrap;html=1;container=0;dropTarget=0;collapsible=0;recursiveResize=0;outlineConnect=0;portConstraint=eastwest;newEdgeStyle={&quot;edgeStyle&quot;:&quot;elbowEdgeStyle&quot;,&quot;elbow&quot;:&quot;vertical&quot;,&quot;curved&quot;:0,&quot;rounded&quot;:0};" parent="1" vertex="1">
          <mxGeometry x="30" y="1080" width="100" height="300" as="geometry" />
        </mxCell>
        <mxCell id="18WVjn5391nZx_TQ4POn-88" value="" style="html=1;points=[];perimeter=orthogonalPerimeter;outlineConnect=0;targetShapes=umlLifeline;portConstraint=eastwest;newEdgeStyle={&quot;edgeStyle&quot;:&quot;elbowEdgeStyle&quot;,&quot;elbow&quot;:&quot;vertical&quot;,&quot;curved&quot;:0,&quot;rounded&quot;:0};" parent="18WVjn5391nZx_TQ4POn-87" vertex="1">
          <mxGeometry x="45" y="80" width="10" height="170" as="geometry" />
        </mxCell>
        <mxCell id="18WVjn5391nZx_TQ4POn-89" value="" style="edgeStyle=elbowEdgeStyle;rounded=0;orthogonalLoop=1;jettySize=auto;html=1;elbow=vertical;curved=0;" parent="1" edge="1">
          <mxGeometry relative="1" as="geometry">
            <Array as="points">
              <mxPoint x="-340" y="1180" />
            </Array>
            <mxPoint x="-430" y="1180" as="sourcePoint" />
            <mxPoint x="-175" y="1180" as="targetPoint" />
          </mxGeometry>
        </mxCell>
        <mxCell id="18WVjn5391nZx_TQ4POn-90" value="2:Request orders without an assigned technician" style="edgeLabel;html=1;align=center;verticalAlign=middle;resizable=0;points=[];" parent="18WVjn5391nZx_TQ4POn-89" vertex="1" connectable="0">
          <mxGeometry x="-0.0246" relative="1" as="geometry">
            <mxPoint y="-10" as="offset" />
          </mxGeometry>
        </mxCell>
        <mxCell id="18WVjn5391nZx_TQ4POn-91" style="edgeStyle=elbowEdgeStyle;rounded=0;orthogonalLoop=1;jettySize=auto;html=1;elbow=vertical;curved=0;" parent="1" target="18WVjn5391nZx_TQ4POn-88" edge="1">
          <mxGeometry relative="1" as="geometry">
            <mxPoint x="70" y="1200" as="targetPoint" />
            <Array as="points">
              <mxPoint x="-165" y="1200" />
            </Array>
            <mxPoint x="-150" y="1200" as="sourcePoint" />
          </mxGeometry>
        </mxCell>
        <mxCell id="18WVjn5391nZx_TQ4POn-92" value="3: Check pending orders" style="edgeLabel;html=1;align=center;verticalAlign=middle;resizable=0;points=[];" parent="1" vertex="1" connectable="0">
          <mxGeometry x="-30" y="1190" as="geometry">
            <mxPoint x="-14" as="offset" />
          </mxGeometry>
        </mxCell>
        <mxCell id="18WVjn5391nZx_TQ4POn-93" value="4: Return pending orders" style="html=1;verticalAlign=bottom;endArrow=open;dashed=1;endSize=8;edgeStyle=elbowEdgeStyle;elbow=vertical;curved=0;rounded=0;" parent="1" source="18WVjn5391nZx_TQ4POn-88" target="18WVjn5391nZx_TQ4POn-86" edge="1">
          <mxGeometry relative="1" as="geometry">
            <mxPoint x="-220" y="1250" as="targetPoint" />
            <Array as="points">
              <mxPoint x="-20" y="1230" />
              <mxPoint x="-160" y="1250" />
            </Array>
            <mxPoint x="-85" y="1250" as="sourcePoint" />
            <mxPoint as="offset" />
          </mxGeometry>
        </mxCell>
        <mxCell id="18WVjn5391nZx_TQ4POn-94" value="5: Send pending orders" style="html=1;verticalAlign=bottom;endArrow=open;dashed=1;endSize=8;edgeStyle=elbowEdgeStyle;elbow=horizontal;curved=0;rounded=0;" parent="1" edge="1">
          <mxGeometry x="-0.0037" relative="1" as="geometry">
            <mxPoint x="-430" y="1240" as="targetPoint" />
            <Array as="points">
              <mxPoint x="-345" y="1240" />
            </Array>
            <mxPoint x="-170.5" y="1240" as="sourcePoint" />
            <mxPoint as="offset" />
          </mxGeometry>
        </mxCell>
        <mxCell id="18WVjn5391nZx_TQ4POn-95" style="edgeStyle=elbowEdgeStyle;rounded=0;orthogonalLoop=1;jettySize=auto;html=1;elbow=vertical;curved=0;" parent="1" edge="1">
          <mxGeometry relative="1" as="geometry">
            <mxPoint x="-430" y="1270.002857142857" as="sourcePoint" />
            <mxPoint x="75" y="1270.002857142857" as="targetPoint" />
          </mxGeometry>
        </mxCell>
        <mxCell id="18WVjn5391nZx_TQ4POn-96" value="6: Assign technicians based on priorities" style="text;html=1;align=center;verticalAlign=middle;resizable=0;points=[];autosize=1;strokeColor=none;fillColor=none;" parent="1" vertex="1">
          <mxGeometry x="-345" y="1250" width="240" height="30" as="geometry" />
        </mxCell>
        <mxCell id="18WVjn5391nZx_TQ4POn-97" value="7: Confirm assignment" style="html=1;verticalAlign=bottom;endArrow=open;dashed=1;endSize=8;edgeStyle=elbowEdgeStyle;elbow=horizontal;curved=0;rounded=0;" parent="1" source="18WVjn5391nZx_TQ4POn-88" target="18WVjn5391nZx_TQ4POn-81" edge="1">
          <mxGeometry x="-0.0031" relative="1" as="geometry">
            <mxPoint x="-410" y="1300" as="targetPoint" />
            <Array as="points">
              <mxPoint x="-105" y="1300" />
            </Array>
            <mxPoint x="69.5" y="1300" as="sourcePoint" />
            <mxPoint as="offset" />
          </mxGeometry>
        </mxCell>
        <mxCell id="18WVjn5391nZx_TQ4POn-98" value="&lt;div&gt;&lt;br&gt;&lt;/div&gt;&lt;div&gt;Report damage by a customer:&lt;/div&gt;" style="text;html=1;align=center;verticalAlign=middle;resizable=0;points=[];autosize=1;strokeColor=none;fillColor=none;" parent="1" vertex="1">
          <mxGeometry x="-775" y="1513" width="190" height="40" as="geometry" />
        </mxCell>
        <mxCell id="18WVjn5391nZx_TQ4POn-116" value="Customer" style="shape=umlLifeline;perimeter=lifelinePerimeter;whiteSpace=wrap;html=1;container=0;dropTarget=0;collapsible=0;recursiveResize=0;outlineConnect=0;portConstraint=eastwest;newEdgeStyle={&quot;edgeStyle&quot;:&quot;elbowEdgeStyle&quot;,&quot;elbow&quot;:&quot;vertical&quot;,&quot;curved&quot;:0,&quot;rounded&quot;:0};" parent="1" vertex="1">
          <mxGeometry x="-730" y="1580" width="100" height="300" as="geometry" />
        </mxCell>
        <mxCell id="18WVjn5391nZx_TQ4POn-117" value="" style="html=1;points=[];perimeter=orthogonalPerimeter;outlineConnect=0;targetShapes=umlLifeline;portConstraint=eastwest;newEdgeStyle={&quot;edgeStyle&quot;:&quot;elbowEdgeStyle&quot;,&quot;elbow&quot;:&quot;vertical&quot;,&quot;curved&quot;:0,&quot;rounded&quot;:0};" parent="18WVjn5391nZx_TQ4POn-116" vertex="1">
          <mxGeometry x="45" y="70" width="10" height="190" as="geometry" />
        </mxCell>
        <mxCell id="18WVjn5391nZx_TQ4POn-118" value="Interface" style="shape=umlLifeline;perimeter=lifelinePerimeter;whiteSpace=wrap;html=1;container=0;dropTarget=0;collapsible=0;recursiveResize=0;outlineConnect=0;portConstraint=eastwest;newEdgeStyle={&quot;edgeStyle&quot;:&quot;elbowEdgeStyle&quot;,&quot;elbow&quot;:&quot;vertical&quot;,&quot;curved&quot;:0,&quot;rounded&quot;:0};" parent="1" vertex="1">
          <mxGeometry x="-510" y="1580" width="100" height="300" as="geometry" />
        </mxCell>
        <mxCell id="18WVjn5391nZx_TQ4POn-119" value="" style="html=1;points=[];perimeter=orthogonalPerimeter;outlineConnect=0;targetShapes=umlLifeline;portConstraint=eastwest;newEdgeStyle={&quot;edgeStyle&quot;:&quot;elbowEdgeStyle&quot;,&quot;elbow&quot;:&quot;vertical&quot;,&quot;curved&quot;:0,&quot;rounded&quot;:0};" parent="18WVjn5391nZx_TQ4POn-118" vertex="1">
          <mxGeometry x="45" y="80" width="10" height="170" as="geometry" />
        </mxCell>
        <mxCell id="18WVjn5391nZx_TQ4POn-120" value="1: Report damage" style="html=1;verticalAlign=bottom;endArrow=block;edgeStyle=elbowEdgeStyle;elbow=vertical;curved=0;rounded=0;" parent="1" source="18WVjn5391nZx_TQ4POn-117" target="18WVjn5391nZx_TQ4POn-119" edge="1">
          <mxGeometry x="-0.002" relative="1" as="geometry">
            <mxPoint x="-535" y="1670" as="sourcePoint" />
            <Array as="points">
              <mxPoint x="-550" y="1660" />
            </Array>
            <mxPoint as="offset" />
          </mxGeometry>
        </mxCell>
        <mxCell id="18WVjn5391nZx_TQ4POn-121" value="6: Reported damage" style="html=1;verticalAlign=bottom;endArrow=open;dashed=1;endSize=8;edgeStyle=elbowEdgeStyle;elbow=vertical;curved=0;rounded=0;" parent="1" edge="1">
          <mxGeometry x="-0.0019" relative="1" as="geometry">
            <mxPoint x="-675" y="1800" as="targetPoint" />
            <Array as="points">
              <mxPoint x="-540" y="1800" />
            </Array>
            <mxPoint as="offset" />
            <mxPoint x="-465" y="1800" as="sourcePoint" />
          </mxGeometry>
        </mxCell>
        <mxCell id="18WVjn5391nZx_TQ4POn-122" value="Damage and Order Management Service" style="shape=umlLifeline;perimeter=lifelinePerimeter;whiteSpace=wrap;html=1;container=0;dropTarget=0;collapsible=0;recursiveResize=0;outlineConnect=0;portConstraint=eastwest;newEdgeStyle={&quot;edgeStyle&quot;:&quot;elbowEdgeStyle&quot;,&quot;elbow&quot;:&quot;vertical&quot;,&quot;curved&quot;:0,&quot;rounded&quot;:0};" parent="1" vertex="1">
          <mxGeometry x="-260" y="1580" width="120" height="300" as="geometry" />
        </mxCell>
        <mxCell id="18WVjn5391nZx_TQ4POn-123" value="" style="html=1;points=[];perimeter=orthogonalPerimeter;outlineConnect=0;targetShapes=umlLifeline;portConstraint=eastwest;newEdgeStyle={&quot;edgeStyle&quot;:&quot;elbowEdgeStyle&quot;,&quot;elbow&quot;:&quot;vertical&quot;,&quot;curved&quot;:0,&quot;rounded&quot;:0};" parent="18WVjn5391nZx_TQ4POn-122" vertex="1">
          <mxGeometry x="55" y="80" width="10" height="170" as="geometry" />
        </mxCell>
        <mxCell id="18WVjn5391nZx_TQ4POn-125" value="Database" style="shape=umlLifeline;perimeter=lifelinePerimeter;whiteSpace=wrap;html=1;container=0;dropTarget=0;collapsible=0;recursiveResize=0;outlineConnect=0;portConstraint=eastwest;newEdgeStyle={&quot;edgeStyle&quot;:&quot;elbowEdgeStyle&quot;,&quot;elbow&quot;:&quot;vertical&quot;,&quot;curved&quot;:0,&quot;rounded&quot;:0};" parent="1" vertex="1">
          <mxGeometry x="-20" y="1580" width="100" height="300" as="geometry" />
        </mxCell>
        <mxCell id="18WVjn5391nZx_TQ4POn-126" value="" style="html=1;points=[];perimeter=orthogonalPerimeter;outlineConnect=0;targetShapes=umlLifeline;portConstraint=eastwest;newEdgeStyle={&quot;edgeStyle&quot;:&quot;elbowEdgeStyle&quot;,&quot;elbow&quot;:&quot;vertical&quot;,&quot;curved&quot;:0,&quot;rounded&quot;:0};" parent="18WVjn5391nZx_TQ4POn-125" vertex="1">
          <mxGeometry x="45" y="80" width="10" height="170" as="geometry" />
        </mxCell>
        <mxCell id="18WVjn5391nZx_TQ4POn-127" value="" style="edgeStyle=elbowEdgeStyle;rounded=0;orthogonalLoop=1;jettySize=auto;html=1;elbow=vertical;curved=0;" parent="1" edge="1">
          <mxGeometry relative="1" as="geometry">
            <Array as="points">
              <mxPoint x="-360" y="1680" />
            </Array>
            <mxPoint x="-455" y="1680" as="sourcePoint" />
            <mxPoint x="-215" y="1680" as="targetPoint" />
          </mxGeometry>
        </mxCell>
        <mxCell id="18WVjn5391nZx_TQ4POn-128" value="2: Create new attention order" style="edgeLabel;html=1;align=center;verticalAlign=middle;resizable=0;points=[];" parent="18WVjn5391nZx_TQ4POn-127" vertex="1" connectable="0">
          <mxGeometry x="-0.0246" relative="1" as="geometry">
            <mxPoint y="-10" as="offset" />
          </mxGeometry>
        </mxCell>
        <mxCell id="18WVjn5391nZx_TQ4POn-129" style="edgeStyle=elbowEdgeStyle;rounded=0;orthogonalLoop=1;jettySize=auto;html=1;elbow=vertical;curved=0;" parent="1" source="18WVjn5391nZx_TQ4POn-123" edge="1">
          <mxGeometry relative="1" as="geometry">
            <mxPoint x="25" y="1690" as="targetPoint" />
            <Array as="points">
              <mxPoint y="1690" />
              <mxPoint x="-210" y="1710" />
            </Array>
            <mxPoint x="-190" y="1690" as="sourcePoint" />
          </mxGeometry>
        </mxCell>
        <mxCell id="18WVjn5391nZx_TQ4POn-133" value="&lt;div&gt;3: Record damage and create order&lt;br&gt;&lt;/div&gt;" style="edgeLabel;html=1;align=center;verticalAlign=middle;resizable=0;points=[];" parent="18WVjn5391nZx_TQ4POn-129" vertex="1" connectable="0">
          <mxGeometry x="-0.2507" y="2" relative="1" as="geometry">
            <mxPoint x="29" y="-8" as="offset" />
          </mxGeometry>
        </mxCell>
        <mxCell id="18WVjn5391nZx_TQ4POn-132" value="5: Order created successfully" style="html=1;verticalAlign=bottom;endArrow=open;dashed=1;endSize=8;edgeStyle=elbowEdgeStyle;elbow=horizontal;curved=0;rounded=0;" parent="1" edge="1">
          <mxGeometry relative="1" as="geometry">
            <mxPoint x="-455" y="1770" as="targetPoint" />
            <Array as="points">
              <mxPoint x="-365" y="1770" />
            </Array>
            <mxPoint x="-215" y="1770" as="sourcePoint" />
            <mxPoint as="offset" />
          </mxGeometry>
        </mxCell>
        <mxCell id="18WVjn5391nZx_TQ4POn-134" value="4: Confirmation" style="html=1;verticalAlign=bottom;endArrow=open;dashed=1;endSize=8;edgeStyle=elbowEdgeStyle;elbow=vertical;curved=0;rounded=0;" parent="1" source="18WVjn5391nZx_TQ4POn-126" target="18WVjn5391nZx_TQ4POn-123" edge="1">
          <mxGeometry x="0.0036" relative="1" as="geometry">
            <mxPoint x="-190" y="1740" as="targetPoint" />
            <Array as="points">
              <mxPoint x="-75" y="1740" />
            </Array>
            <mxPoint x="20" y="1740" as="sourcePoint" />
            <mxPoint as="offset" />
          </mxGeometry>
        </mxCell>
        <mxCell id="18WVjn5391nZx_TQ4POn-136" value="&lt;div&gt;&lt;br&gt;&lt;/div&gt;&lt;div&gt;Generation of attended damage reports&lt;/div&gt;" style="text;html=1;align=center;verticalAlign=middle;resizable=0;points=[];autosize=1;strokeColor=none;fillColor=none;" parent="1" vertex="1">
          <mxGeometry x="-800" y="2000" width="230" height="40" as="geometry" />
        </mxCell>
        <mxCell id="18WVjn5391nZx_TQ4POn-137" value="Admin" style="shape=umlLifeline;perimeter=lifelinePerimeter;whiteSpace=wrap;html=1;container=0;dropTarget=0;collapsible=0;recursiveResize=0;outlineConnect=0;portConstraint=eastwest;newEdgeStyle={&quot;edgeStyle&quot;:&quot;elbowEdgeStyle&quot;,&quot;elbow&quot;:&quot;vertical&quot;,&quot;curved&quot;:0,&quot;rounded&quot;:0};" parent="1" vertex="1">
          <mxGeometry x="-770" y="2067" width="100" height="300" as="geometry" />
        </mxCell>
        <mxCell id="18WVjn5391nZx_TQ4POn-138" value="" style="html=1;points=[];perimeter=orthogonalPerimeter;outlineConnect=0;targetShapes=umlLifeline;portConstraint=eastwest;newEdgeStyle={&quot;edgeStyle&quot;:&quot;elbowEdgeStyle&quot;,&quot;elbow&quot;:&quot;vertical&quot;,&quot;curved&quot;:0,&quot;rounded&quot;:0};" parent="18WVjn5391nZx_TQ4POn-137" vertex="1">
          <mxGeometry x="45" y="70" width="10" height="190" as="geometry" />
        </mxCell>
        <mxCell id="18WVjn5391nZx_TQ4POn-139" value="Interface" style="shape=umlLifeline;perimeter=lifelinePerimeter;whiteSpace=wrap;html=1;container=0;dropTarget=0;collapsible=0;recursiveResize=0;outlineConnect=0;portConstraint=eastwest;newEdgeStyle={&quot;edgeStyle&quot;:&quot;elbowEdgeStyle&quot;,&quot;elbow&quot;:&quot;vertical&quot;,&quot;curved&quot;:0,&quot;rounded&quot;:0};" parent="1" vertex="1">
          <mxGeometry x="-515" y="2067" width="100" height="300" as="geometry" />
        </mxCell>
        <mxCell id="18WVjn5391nZx_TQ4POn-140" value="" style="html=1;points=[];perimeter=orthogonalPerimeter;outlineConnect=0;targetShapes=umlLifeline;portConstraint=eastwest;newEdgeStyle={&quot;edgeStyle&quot;:&quot;elbowEdgeStyle&quot;,&quot;elbow&quot;:&quot;vertical&quot;,&quot;curved&quot;:0,&quot;rounded&quot;:0};" parent="18WVjn5391nZx_TQ4POn-139" vertex="1">
          <mxGeometry x="45" y="80" width="10" height="170" as="geometry" />
        </mxCell>
        <mxCell id="18WVjn5391nZx_TQ4POn-141" value="1: Generation of attended damage reports" style="html=1;verticalAlign=bottom;endArrow=block;edgeStyle=elbowEdgeStyle;elbow=vertical;curved=0;rounded=0;" parent="1" source="18WVjn5391nZx_TQ4POn-138" target="18WVjn5391nZx_TQ4POn-140" edge="1">
          <mxGeometry x="0.102" y="7" relative="1" as="geometry">
            <mxPoint x="-540" y="2157" as="sourcePoint" />
            <Array as="points">
              <mxPoint x="-555" y="2147" />
            </Array>
            <mxPoint as="offset" />
          </mxGeometry>
        </mxCell>
        <mxCell id="18WVjn5391nZx_TQ4POn-142" value="6: Reported damage" style="html=1;verticalAlign=bottom;endArrow=open;dashed=1;endSize=8;edgeStyle=elbowEdgeStyle;elbow=vertical;curved=0;rounded=0;" parent="1" target="18WVjn5391nZx_TQ4POn-138" edge="1">
          <mxGeometry x="-0.0019" relative="1" as="geometry">
            <mxPoint x="-680" y="2287" as="targetPoint" />
            <Array as="points">
              <mxPoint x="-545" y="2287" />
            </Array>
            <mxPoint as="offset" />
            <mxPoint x="-470" y="2287" as="sourcePoint" />
          </mxGeometry>
        </mxCell>
        <mxCell id="18WVjn5391nZx_TQ4POn-143" value="Microservice (Reporting Service)" style="shape=umlLifeline;perimeter=lifelinePerimeter;whiteSpace=wrap;html=1;container=0;dropTarget=0;collapsible=0;recursiveResize=0;outlineConnect=0;portConstraint=eastwest;newEdgeStyle={&quot;edgeStyle&quot;:&quot;elbowEdgeStyle&quot;,&quot;elbow&quot;:&quot;vertical&quot;,&quot;curved&quot;:0,&quot;rounded&quot;:0};" parent="1" vertex="1">
          <mxGeometry x="-265" y="2067" width="120" height="300" as="geometry" />
        </mxCell>
        <mxCell id="18WVjn5391nZx_TQ4POn-144" value="" style="html=1;points=[];perimeter=orthogonalPerimeter;outlineConnect=0;targetShapes=umlLifeline;portConstraint=eastwest;newEdgeStyle={&quot;edgeStyle&quot;:&quot;elbowEdgeStyle&quot;,&quot;elbow&quot;:&quot;vertical&quot;,&quot;curved&quot;:0,&quot;rounded&quot;:0};" parent="18WVjn5391nZx_TQ4POn-143" vertex="1">
          <mxGeometry x="55" y="80" width="10" height="170" as="geometry" />
        </mxCell>
        <mxCell id="18WVjn5391nZx_TQ4POn-145" value="Database" style="shape=umlLifeline;perimeter=lifelinePerimeter;whiteSpace=wrap;html=1;container=0;dropTarget=0;collapsible=0;recursiveResize=0;outlineConnect=0;portConstraint=eastwest;newEdgeStyle={&quot;edgeStyle&quot;:&quot;elbowEdgeStyle&quot;,&quot;elbow&quot;:&quot;vertical&quot;,&quot;curved&quot;:0,&quot;rounded&quot;:0};" parent="1" vertex="1">
          <mxGeometry x="-25" y="2067" width="100" height="300" as="geometry" />
        </mxCell>
        <mxCell id="18WVjn5391nZx_TQ4POn-146" value="" style="html=1;points=[];perimeter=orthogonalPerimeter;outlineConnect=0;targetShapes=umlLifeline;portConstraint=eastwest;newEdgeStyle={&quot;edgeStyle&quot;:&quot;elbowEdgeStyle&quot;,&quot;elbow&quot;:&quot;vertical&quot;,&quot;curved&quot;:0,&quot;rounded&quot;:0};" parent="18WVjn5391nZx_TQ4POn-145" vertex="1">
          <mxGeometry x="45" y="80" width="10" height="170" as="geometry" />
        </mxCell>
        <mxCell id="18WVjn5391nZx_TQ4POn-147" value="" style="edgeStyle=elbowEdgeStyle;rounded=0;orthogonalLoop=1;jettySize=auto;html=1;elbow=vertical;curved=0;" parent="1" edge="1">
          <mxGeometry relative="1" as="geometry">
            <Array as="points">
              <mxPoint x="-365" y="2167" />
            </Array>
            <mxPoint x="-460" y="2167" as="sourcePoint" />
            <mxPoint x="-220" y="2167" as="targetPoint" />
          </mxGeometry>
        </mxCell>
        <mxCell id="18WVjn5391nZx_TQ4POn-148" value="2: Create new attention order" style="edgeLabel;html=1;align=center;verticalAlign=middle;resizable=0;points=[];" parent="18WVjn5391nZx_TQ4POn-147" vertex="1" connectable="0">
          <mxGeometry x="-0.0246" relative="1" as="geometry">
            <mxPoint y="-10" as="offset" />
          </mxGeometry>
        </mxCell>
        <mxCell id="18WVjn5391nZx_TQ4POn-149" style="edgeStyle=elbowEdgeStyle;rounded=0;orthogonalLoop=1;jettySize=auto;html=1;elbow=vertical;curved=0;" parent="1" source="18WVjn5391nZx_TQ4POn-144" edge="1">
          <mxGeometry relative="1" as="geometry">
            <mxPoint x="20" y="2177" as="targetPoint" />
            <Array as="points">
              <mxPoint x="-5" y="2177" />
              <mxPoint x="-215" y="2197" />
            </Array>
            <mxPoint x="-195" y="2177" as="sourcePoint" />
          </mxGeometry>
        </mxCell>
        <mxCell id="18WVjn5391nZx_TQ4POn-150" value="&lt;div&gt;3: Record damage and create order&lt;br&gt;&lt;/div&gt;" style="edgeLabel;html=1;align=center;verticalAlign=middle;resizable=0;points=[];" parent="18WVjn5391nZx_TQ4POn-149" vertex="1" connectable="0">
          <mxGeometry x="-0.2507" y="2" relative="1" as="geometry">
            <mxPoint x="29" y="-8" as="offset" />
          </mxGeometry>
        </mxCell>
        <mxCell id="18WVjn5391nZx_TQ4POn-151" value="5: Order created successfully" style="html=1;verticalAlign=bottom;endArrow=open;dashed=1;endSize=8;edgeStyle=elbowEdgeStyle;elbow=horizontal;curved=0;rounded=0;" parent="1" edge="1">
          <mxGeometry relative="1" as="geometry">
            <mxPoint x="-460" y="2257" as="targetPoint" />
            <Array as="points">
              <mxPoint x="-370" y="2257" />
            </Array>
            <mxPoint x="-220" y="2257" as="sourcePoint" />
            <mxPoint as="offset" />
          </mxGeometry>
        </mxCell>
        <mxCell id="18WVjn5391nZx_TQ4POn-152" value="4: Confirmation" style="html=1;verticalAlign=bottom;endArrow=open;dashed=1;endSize=8;edgeStyle=elbowEdgeStyle;elbow=vertical;curved=0;rounded=0;" parent="1" source="18WVjn5391nZx_TQ4POn-146" target="18WVjn5391nZx_TQ4POn-144" edge="1">
          <mxGeometry x="0.0036" relative="1" as="geometry">
            <mxPoint x="-195" y="2227" as="targetPoint" />
            <Array as="points">
              <mxPoint x="-80" y="2227" />
            </Array>
            <mxPoint x="15" y="2227" as="sourcePoint" />
            <mxPoint as="offset" />
          </mxGeometry>
        </mxCell>
        <mxCell id="18WVjn5391nZx_TQ4POn-155" value="Request a report of repaired damages" style="text;whiteSpace=wrap;" parent="1" vertex="1">
          <mxGeometry x="-800" y="2567" width="240" height="40" as="geometry" />
        </mxCell>
        <mxCell id="18WVjn5391nZx_TQ4POn-157" value="Admin" style="shape=umlLifeline;perimeter=lifelinePerimeter;whiteSpace=wrap;html=1;container=0;dropTarget=0;collapsible=0;recursiveResize=0;outlineConnect=0;portConstraint=eastwest;newEdgeStyle={&quot;edgeStyle&quot;:&quot;elbowEdgeStyle&quot;,&quot;elbow&quot;:&quot;vertical&quot;,&quot;curved&quot;:0,&quot;rounded&quot;:0};" parent="1" vertex="1">
          <mxGeometry x="-765" y="2634" width="100" height="300" as="geometry" />
        </mxCell>
        <mxCell id="18WVjn5391nZx_TQ4POn-158" value="" style="html=1;points=[];perimeter=orthogonalPerimeter;outlineConnect=0;targetShapes=umlLifeline;portConstraint=eastwest;newEdgeStyle={&quot;edgeStyle&quot;:&quot;elbowEdgeStyle&quot;,&quot;elbow&quot;:&quot;vertical&quot;,&quot;curved&quot;:0,&quot;rounded&quot;:0};" parent="18WVjn5391nZx_TQ4POn-157" vertex="1">
          <mxGeometry x="45" y="70" width="10" height="190" as="geometry" />
        </mxCell>
        <mxCell id="18WVjn5391nZx_TQ4POn-159" value="Interface" style="shape=umlLifeline;perimeter=lifelinePerimeter;whiteSpace=wrap;html=1;container=0;dropTarget=0;collapsible=0;recursiveResize=0;outlineConnect=0;portConstraint=eastwest;newEdgeStyle={&quot;edgeStyle&quot;:&quot;elbowEdgeStyle&quot;,&quot;elbow&quot;:&quot;vertical&quot;,&quot;curved&quot;:0,&quot;rounded&quot;:0};" parent="1" vertex="1">
          <mxGeometry x="-510" y="2634" width="100" height="300" as="geometry" />
        </mxCell>
        <mxCell id="18WVjn5391nZx_TQ4POn-160" value="" style="html=1;points=[];perimeter=orthogonalPerimeter;outlineConnect=0;targetShapes=umlLifeline;portConstraint=eastwest;newEdgeStyle={&quot;edgeStyle&quot;:&quot;elbowEdgeStyle&quot;,&quot;elbow&quot;:&quot;vertical&quot;,&quot;curved&quot;:0,&quot;rounded&quot;:0};" parent="18WVjn5391nZx_TQ4POn-159" vertex="1">
          <mxGeometry x="45" y="80" width="10" height="170" as="geometry" />
        </mxCell>
        <mxCell id="18WVjn5391nZx_TQ4POn-161" value="1: Request a report of repaired damages" style="html=1;verticalAlign=bottom;endArrow=block;edgeStyle=elbowEdgeStyle;elbow=vertical;curved=0;rounded=0;" parent="1" source="18WVjn5391nZx_TQ4POn-158" target="18WVjn5391nZx_TQ4POn-160" edge="1">
          <mxGeometry x="0.102" y="7" relative="1" as="geometry">
            <mxPoint x="-535" y="2724" as="sourcePoint" />
            <Array as="points">
              <mxPoint x="-550" y="2714" />
            </Array>
            <mxPoint as="offset" />
          </mxGeometry>
        </mxCell>
        <mxCell id="18WVjn5391nZx_TQ4POn-162" value="6: Show report" style="html=1;verticalAlign=bottom;endArrow=open;dashed=1;endSize=8;edgeStyle=elbowEdgeStyle;elbow=vertical;curved=0;rounded=0;" parent="1" target="18WVjn5391nZx_TQ4POn-158" edge="1">
          <mxGeometry x="-0.0049" relative="1" as="geometry">
            <mxPoint x="-675" y="2854" as="targetPoint" />
            <Array as="points">
              <mxPoint x="-540" y="2854" />
            </Array>
            <mxPoint as="offset" />
            <mxPoint x="-465" y="2854" as="sourcePoint" />
          </mxGeometry>
        </mxCell>
        <mxCell id="18WVjn5391nZx_TQ4POn-163" value="Microservice (Reporting Service)" style="shape=umlLifeline;perimeter=lifelinePerimeter;whiteSpace=wrap;html=1;container=0;dropTarget=0;collapsible=0;recursiveResize=0;outlineConnect=0;portConstraint=eastwest;newEdgeStyle={&quot;edgeStyle&quot;:&quot;elbowEdgeStyle&quot;,&quot;elbow&quot;:&quot;vertical&quot;,&quot;curved&quot;:0,&quot;rounded&quot;:0};" parent="1" vertex="1">
          <mxGeometry x="-260" y="2634" width="120" height="300" as="geometry" />
        </mxCell>
        <mxCell id="18WVjn5391nZx_TQ4POn-164" value="" style="html=1;points=[];perimeter=orthogonalPerimeter;outlineConnect=0;targetShapes=umlLifeline;portConstraint=eastwest;newEdgeStyle={&quot;edgeStyle&quot;:&quot;elbowEdgeStyle&quot;,&quot;elbow&quot;:&quot;vertical&quot;,&quot;curved&quot;:0,&quot;rounded&quot;:0};" parent="18WVjn5391nZx_TQ4POn-163" vertex="1">
          <mxGeometry x="55" y="80" width="10" height="170" as="geometry" />
        </mxCell>
        <mxCell id="18WVjn5391nZx_TQ4POn-165" value="Database" style="shape=umlLifeline;perimeter=lifelinePerimeter;whiteSpace=wrap;html=1;container=0;dropTarget=0;collapsible=0;recursiveResize=0;outlineConnect=0;portConstraint=eastwest;newEdgeStyle={&quot;edgeStyle&quot;:&quot;elbowEdgeStyle&quot;,&quot;elbow&quot;:&quot;vertical&quot;,&quot;curved&quot;:0,&quot;rounded&quot;:0};" parent="1" vertex="1">
          <mxGeometry x="-20" y="2634" width="100" height="300" as="geometry" />
        </mxCell>
        <mxCell id="18WVjn5391nZx_TQ4POn-166" value="" style="html=1;points=[];perimeter=orthogonalPerimeter;outlineConnect=0;targetShapes=umlLifeline;portConstraint=eastwest;newEdgeStyle={&quot;edgeStyle&quot;:&quot;elbowEdgeStyle&quot;,&quot;elbow&quot;:&quot;vertical&quot;,&quot;curved&quot;:0,&quot;rounded&quot;:0};" parent="18WVjn5391nZx_TQ4POn-165" vertex="1">
          <mxGeometry x="45" y="80" width="10" height="170" as="geometry" />
        </mxCell>
        <mxCell id="18WVjn5391nZx_TQ4POn-167" value="" style="edgeStyle=elbowEdgeStyle;rounded=0;orthogonalLoop=1;jettySize=auto;html=1;elbow=vertical;curved=0;" parent="1" edge="1">
          <mxGeometry relative="1" as="geometry">
            <Array as="points">
              <mxPoint x="-360" y="2734" />
            </Array>
            <mxPoint x="-455" y="2734" as="sourcePoint" />
            <mxPoint x="-215" y="2734" as="targetPoint" />
          </mxGeometry>
        </mxCell>
        <mxCell id="18WVjn5391nZx_TQ4POn-168" value="2: Generate report" style="edgeLabel;html=1;align=center;verticalAlign=middle;resizable=0;points=[];" parent="18WVjn5391nZx_TQ4POn-167" vertex="1" connectable="0">
          <mxGeometry x="-0.0246" relative="1" as="geometry">
            <mxPoint y="-10" as="offset" />
          </mxGeometry>
        </mxCell>
        <mxCell id="18WVjn5391nZx_TQ4POn-169" style="edgeStyle=elbowEdgeStyle;rounded=0;orthogonalLoop=1;jettySize=auto;html=1;elbow=vertical;curved=0;" parent="1" source="18WVjn5391nZx_TQ4POn-164" edge="1">
          <mxGeometry relative="1" as="geometry">
            <mxPoint x="25" y="2744" as="targetPoint" />
            <Array as="points">
              <mxPoint y="2744" />
              <mxPoint x="-210" y="2764" />
            </Array>
            <mxPoint x="-190" y="2744" as="sourcePoint" />
          </mxGeometry>
        </mxCell>
        <mxCell id="18WVjn5391nZx_TQ4POn-170" value="&lt;div&gt;3: Check for repaired damage&lt;br&gt;&lt;/div&gt;" style="edgeLabel;html=1;align=center;verticalAlign=middle;resizable=0;points=[];" parent="18WVjn5391nZx_TQ4POn-169" vertex="1" connectable="0">
          <mxGeometry x="-0.2507" y="2" relative="1" as="geometry">
            <mxPoint x="29" y="-8" as="offset" />
          </mxGeometry>
        </mxCell>
        <mxCell id="18WVjn5391nZx_TQ4POn-171" value="5: Format the report" style="html=1;verticalAlign=bottom;endArrow=open;dashed=1;endSize=8;edgeStyle=elbowEdgeStyle;elbow=horizontal;curved=0;rounded=0;" parent="1" edge="1">
          <mxGeometry relative="1" as="geometry">
            <mxPoint x="-455" y="2824" as="targetPoint" />
            <Array as="points">
              <mxPoint x="-365" y="2824" />
            </Array>
            <mxPoint x="-215" y="2824" as="sourcePoint" />
            <mxPoint as="offset" />
          </mxGeometry>
        </mxCell>
        <mxCell id="18WVjn5391nZx_TQ4POn-172" value="4: Report data" style="html=1;verticalAlign=bottom;endArrow=open;dashed=1;endSize=8;edgeStyle=elbowEdgeStyle;elbow=vertical;curved=0;rounded=0;" parent="1" source="18WVjn5391nZx_TQ4POn-166" target="18WVjn5391nZx_TQ4POn-164" edge="1">
          <mxGeometry x="0.0036" relative="1" as="geometry">
            <mxPoint x="-190" y="2794" as="targetPoint" />
            <Array as="points">
              <mxPoint x="-75" y="2794" />
            </Array>
            <mxPoint x="20" y="2794" as="sourcePoint" />
            <mxPoint as="offset" />
          </mxGeometry>
        </mxCell>
        <mxCell id="18WVjn5391nZx_TQ4POn-173" value="Manual technician&amp;nbsp;assignment" style="text;whiteSpace=wrap;html=1;" parent="1" vertex="1">
          <mxGeometry x="-810" y="3100" width="240" height="40" as="geometry" />
        </mxCell>
        <mxCell id="18WVjn5391nZx_TQ4POn-174" value="Admin" style="shape=umlLifeline;perimeter=lifelinePerimeter;whiteSpace=wrap;html=1;container=0;dropTarget=0;collapsible=0;recursiveResize=0;outlineConnect=0;portConstraint=eastwest;newEdgeStyle={&quot;edgeStyle&quot;:&quot;elbowEdgeStyle&quot;,&quot;elbow&quot;:&quot;vertical&quot;,&quot;curved&quot;:0,&quot;rounded&quot;:0};" parent="1" vertex="1">
          <mxGeometry x="-810" y="3150" width="100" height="300" as="geometry" />
        </mxCell>
        <mxCell id="18WVjn5391nZx_TQ4POn-175" value="" style="html=1;points=[];perimeter=orthogonalPerimeter;outlineConnect=0;targetShapes=umlLifeline;portConstraint=eastwest;newEdgeStyle={&quot;edgeStyle&quot;:&quot;elbowEdgeStyle&quot;,&quot;elbow&quot;:&quot;vertical&quot;,&quot;curved&quot;:0,&quot;rounded&quot;:0};" parent="18WVjn5391nZx_TQ4POn-174" vertex="1">
          <mxGeometry x="45" y="70" width="10" height="190" as="geometry" />
        </mxCell>
        <mxCell id="18WVjn5391nZx_TQ4POn-176" value="Interface" style="shape=umlLifeline;perimeter=lifelinePerimeter;whiteSpace=wrap;html=1;container=0;dropTarget=0;collapsible=0;recursiveResize=0;outlineConnect=0;portConstraint=eastwest;newEdgeStyle={&quot;edgeStyle&quot;:&quot;elbowEdgeStyle&quot;,&quot;elbow&quot;:&quot;vertical&quot;,&quot;curved&quot;:0,&quot;rounded&quot;:0};" parent="1" vertex="1">
          <mxGeometry x="-487.5" y="3160" width="100" height="300" as="geometry" />
        </mxCell>
        <mxCell id="18WVjn5391nZx_TQ4POn-177" value="" style="html=1;points=[];perimeter=orthogonalPerimeter;outlineConnect=0;targetShapes=umlLifeline;portConstraint=eastwest;newEdgeStyle={&quot;edgeStyle&quot;:&quot;elbowEdgeStyle&quot;,&quot;elbow&quot;:&quot;vertical&quot;,&quot;curved&quot;:0,&quot;rounded&quot;:0};" parent="18WVjn5391nZx_TQ4POn-176" vertex="1">
          <mxGeometry x="45" y="80" width="10" height="170" as="geometry" />
        </mxCell>
        <mxCell id="18WVjn5391nZx_TQ4POn-178" value="1: Select order and technician for manual assignment" style="html=1;verticalAlign=bottom;endArrow=block;edgeStyle=elbowEdgeStyle;elbow=vertical;curved=0;rounded=0;" parent="1" source="18WVjn5391nZx_TQ4POn-175" target="18WVjn5391nZx_TQ4POn-177" edge="1">
          <mxGeometry x="0.102" y="7" relative="1" as="geometry">
            <mxPoint x="-512.5" y="3250" as="sourcePoint" />
            <Array as="points">
              <mxPoint x="-527.5" y="3240" />
            </Array>
            <mxPoint as="offset" />
          </mxGeometry>
        </mxCell>
        <mxCell id="18WVjn5391nZx_TQ4POn-179" value="6: Show completed assignation" style="html=1;verticalAlign=bottom;endArrow=open;dashed=1;endSize=8;edgeStyle=elbowEdgeStyle;elbow=vertical;curved=0;rounded=0;" parent="1" target="18WVjn5391nZx_TQ4POn-175" edge="1">
          <mxGeometry x="-0.0049" relative="1" as="geometry">
            <mxPoint x="-652.5" y="3380" as="targetPoint" />
            <Array as="points">
              <mxPoint x="-517.5" y="3380" />
            </Array>
            <mxPoint as="offset" />
            <mxPoint x="-442.5" y="3380" as="sourcePoint" />
          </mxGeometry>
        </mxCell>
        <mxCell id="18WVjn5391nZx_TQ4POn-180" value="Microservice (Reporting Service)" style="shape=umlLifeline;perimeter=lifelinePerimeter;whiteSpace=wrap;html=1;container=0;dropTarget=0;collapsible=0;recursiveResize=0;outlineConnect=0;portConstraint=eastwest;newEdgeStyle={&quot;edgeStyle&quot;:&quot;elbowEdgeStyle&quot;,&quot;elbow&quot;:&quot;vertical&quot;,&quot;curved&quot;:0,&quot;rounded&quot;:0};" parent="1" vertex="1">
          <mxGeometry x="-237.5" y="3160" width="120" height="300" as="geometry" />
        </mxCell>
        <mxCell id="18WVjn5391nZx_TQ4POn-181" value="" style="html=1;points=[];perimeter=orthogonalPerimeter;outlineConnect=0;targetShapes=umlLifeline;portConstraint=eastwest;newEdgeStyle={&quot;edgeStyle&quot;:&quot;elbowEdgeStyle&quot;,&quot;elbow&quot;:&quot;vertical&quot;,&quot;curved&quot;:0,&quot;rounded&quot;:0};" parent="18WVjn5391nZx_TQ4POn-180" vertex="1">
          <mxGeometry x="55" y="80" width="10" height="170" as="geometry" />
        </mxCell>
        <mxCell id="18WVjn5391nZx_TQ4POn-182" value="Database" style="shape=umlLifeline;perimeter=lifelinePerimeter;whiteSpace=wrap;html=1;container=0;dropTarget=0;collapsible=0;recursiveResize=0;outlineConnect=0;portConstraint=eastwest;newEdgeStyle={&quot;edgeStyle&quot;:&quot;elbowEdgeStyle&quot;,&quot;elbow&quot;:&quot;vertical&quot;,&quot;curved&quot;:0,&quot;rounded&quot;:0};" parent="1" vertex="1">
          <mxGeometry x="2.5" y="3160" width="100" height="300" as="geometry" />
        </mxCell>
        <mxCell id="18WVjn5391nZx_TQ4POn-183" value="" style="html=1;points=[];perimeter=orthogonalPerimeter;outlineConnect=0;targetShapes=umlLifeline;portConstraint=eastwest;newEdgeStyle={&quot;edgeStyle&quot;:&quot;elbowEdgeStyle&quot;,&quot;elbow&quot;:&quot;vertical&quot;,&quot;curved&quot;:0,&quot;rounded&quot;:0};" parent="18WVjn5391nZx_TQ4POn-182" vertex="1">
          <mxGeometry x="45" y="80" width="10" height="170" as="geometry" />
        </mxCell>
        <mxCell id="18WVjn5391nZx_TQ4POn-184" value="" style="edgeStyle=elbowEdgeStyle;rounded=0;orthogonalLoop=1;jettySize=auto;html=1;elbow=vertical;curved=0;" parent="1" edge="1">
          <mxGeometry relative="1" as="geometry">
            <Array as="points">
              <mxPoint x="-337.5" y="3260" />
            </Array>
            <mxPoint x="-432.5" y="3260" as="sourcePoint" />
            <mxPoint x="-192.5" y="3260" as="targetPoint" />
          </mxGeometry>
        </mxCell>
        <mxCell id="18WVjn5391nZx_TQ4POn-185" value="2: Assign technician to order" style="edgeLabel;html=1;align=center;verticalAlign=middle;resizable=0;points=[];" parent="18WVjn5391nZx_TQ4POn-184" vertex="1" connectable="0">
          <mxGeometry x="-0.0246" relative="1" as="geometry">
            <mxPoint y="-10" as="offset" />
          </mxGeometry>
        </mxCell>
        <mxCell id="18WVjn5391nZx_TQ4POn-186" style="edgeStyle=elbowEdgeStyle;rounded=0;orthogonalLoop=1;jettySize=auto;html=1;elbow=vertical;curved=0;" parent="1" source="18WVjn5391nZx_TQ4POn-181" edge="1">
          <mxGeometry relative="1" as="geometry">
            <mxPoint x="47.5" y="3270" as="targetPoint" />
            <Array as="points">
              <mxPoint x="22.5" y="3270" />
              <mxPoint x="-187.5" y="3290" />
            </Array>
            <mxPoint x="-167.5" y="3270" as="sourcePoint" />
          </mxGeometry>
        </mxCell>
        <mxCell id="18WVjn5391nZx_TQ4POn-187" value="&lt;div&gt;3: Update order with assigned technician&lt;br&gt;&lt;/div&gt;" style="edgeLabel;html=1;align=center;verticalAlign=middle;resizable=0;points=[];" parent="18WVjn5391nZx_TQ4POn-186" vertex="1" connectable="0">
          <mxGeometry x="-0.2507" y="2" relative="1" as="geometry">
            <mxPoint x="29" y="-8" as="offset" />
          </mxGeometry>
        </mxCell>
        <mxCell id="18WVjn5391nZx_TQ4POn-188" value="5: Create order interface and update" style="html=1;verticalAlign=bottom;endArrow=open;dashed=1;endSize=8;edgeStyle=elbowEdgeStyle;elbow=horizontal;curved=0;rounded=0;" parent="1" edge="1">
          <mxGeometry relative="1" as="geometry">
            <mxPoint x="-432.5" y="3350" as="targetPoint" />
            <Array as="points">
              <mxPoint x="-342.5" y="3350" />
            </Array>
            <mxPoint x="-192.5" y="3350" as="sourcePoint" />
            <mxPoint as="offset" />
          </mxGeometry>
        </mxCell>
        <mxCell id="18WVjn5391nZx_TQ4POn-189" value="4: Confirm update&amp;nbsp;" style="html=1;verticalAlign=bottom;endArrow=open;dashed=1;endSize=8;edgeStyle=elbowEdgeStyle;elbow=vertical;curved=0;rounded=0;" parent="1" source="18WVjn5391nZx_TQ4POn-183" target="18WVjn5391nZx_TQ4POn-181" edge="1">
          <mxGeometry x="0.0036" relative="1" as="geometry">
            <mxPoint x="-167.5" y="3320" as="targetPoint" />
            <Array as="points">
              <mxPoint x="-52.5" y="3320" />
            </Array>
            <mxPoint x="42.5" y="3320" as="sourcePoint" />
            <mxPoint as="offset" />
          </mxGeometry>
        </mxCell>
        <mxCell id="18WVjn5391nZx_TQ4POn-191" value="Consultation of pending orders by area" style="text;whiteSpace=wrap;html=1;" parent="1" vertex="1">
          <mxGeometry x="-822.5" y="3650" width="240" height="40" as="geometry" />
        </mxCell>
        <mxCell id="18WVjn5391nZx_TQ4POn-192" value="Admin" style="shape=umlLifeline;perimeter=lifelinePerimeter;whiteSpace=wrap;html=1;container=0;dropTarget=0;collapsible=0;recursiveResize=0;outlineConnect=0;portConstraint=eastwest;newEdgeStyle={&quot;edgeStyle&quot;:&quot;elbowEdgeStyle&quot;,&quot;elbow&quot;:&quot;vertical&quot;,&quot;curved&quot;:0,&quot;rounded&quot;:0};" parent="1" vertex="1">
          <mxGeometry x="-822.5" y="3700" width="100" height="300" as="geometry" />
        </mxCell>
        <mxCell id="18WVjn5391nZx_TQ4POn-193" value="" style="html=1;points=[];perimeter=orthogonalPerimeter;outlineConnect=0;targetShapes=umlLifeline;portConstraint=eastwest;newEdgeStyle={&quot;edgeStyle&quot;:&quot;elbowEdgeStyle&quot;,&quot;elbow&quot;:&quot;vertical&quot;,&quot;curved&quot;:0,&quot;rounded&quot;:0};" parent="18WVjn5391nZx_TQ4POn-192" vertex="1">
          <mxGeometry x="45" y="70" width="10" height="190" as="geometry" />
        </mxCell>
        <mxCell id="18WVjn5391nZx_TQ4POn-194" value="Interface" style="shape=umlLifeline;perimeter=lifelinePerimeter;whiteSpace=wrap;html=1;container=0;dropTarget=0;collapsible=0;recursiveResize=0;outlineConnect=0;portConstraint=eastwest;newEdgeStyle={&quot;edgeStyle&quot;:&quot;elbowEdgeStyle&quot;,&quot;elbow&quot;:&quot;vertical&quot;,&quot;curved&quot;:0,&quot;rounded&quot;:0};" parent="1" vertex="1">
          <mxGeometry x="-500" y="3710" width="100" height="300" as="geometry" />
        </mxCell>
        <mxCell id="18WVjn5391nZx_TQ4POn-195" value="" style="html=1;points=[];perimeter=orthogonalPerimeter;outlineConnect=0;targetShapes=umlLifeline;portConstraint=eastwest;newEdgeStyle={&quot;edgeStyle&quot;:&quot;elbowEdgeStyle&quot;,&quot;elbow&quot;:&quot;vertical&quot;,&quot;curved&quot;:0,&quot;rounded&quot;:0};" parent="18WVjn5391nZx_TQ4POn-194" vertex="1">
          <mxGeometry x="45" y="80" width="10" height="170" as="geometry" />
        </mxCell>
        <mxCell id="18WVjn5391nZx_TQ4POn-196" value="1: Select area to consult pending orders" style="html=1;verticalAlign=bottom;endArrow=block;edgeStyle=elbowEdgeStyle;elbow=vertical;curved=0;rounded=0;" parent="1" source="18WVjn5391nZx_TQ4POn-193" target="18WVjn5391nZx_TQ4POn-195" edge="1">
          <mxGeometry x="0.1008" y="7" relative="1" as="geometry">
            <mxPoint x="-525" y="3800" as="sourcePoint" />
            <Array as="points">
              <mxPoint x="-540" y="3790" />
            </Array>
            <mxPoint as="offset" />
          </mxGeometry>
        </mxCell>
        <mxCell id="18WVjn5391nZx_TQ4POn-197" value="6: Pending orders by zone" style="html=1;verticalAlign=bottom;endArrow=open;dashed=1;endSize=8;edgeStyle=elbowEdgeStyle;elbow=vertical;curved=0;rounded=0;" parent="1" target="18WVjn5391nZx_TQ4POn-193" edge="1">
          <mxGeometry x="-0.008" relative="1" as="geometry">
            <mxPoint x="-665" y="3930" as="targetPoint" />
            <Array as="points">
              <mxPoint x="-530" y="3930" />
            </Array>
            <mxPoint as="offset" />
            <mxPoint x="-455" y="3930" as="sourcePoint" />
          </mxGeometry>
        </mxCell>
        <mxCell id="18WVjn5391nZx_TQ4POn-198" value="Service Management Damage and Orders" style="shape=umlLifeline;perimeter=lifelinePerimeter;whiteSpace=wrap;html=1;container=0;dropTarget=0;collapsible=0;recursiveResize=0;outlineConnect=0;portConstraint=eastwest;newEdgeStyle={&quot;edgeStyle&quot;:&quot;elbowEdgeStyle&quot;,&quot;elbow&quot;:&quot;vertical&quot;,&quot;curved&quot;:0,&quot;rounded&quot;:0};" parent="1" vertex="1">
          <mxGeometry x="-250" y="3710" width="120" height="300" as="geometry" />
        </mxCell>
        <mxCell id="18WVjn5391nZx_TQ4POn-199" value="" style="html=1;points=[];perimeter=orthogonalPerimeter;outlineConnect=0;targetShapes=umlLifeline;portConstraint=eastwest;newEdgeStyle={&quot;edgeStyle&quot;:&quot;elbowEdgeStyle&quot;,&quot;elbow&quot;:&quot;vertical&quot;,&quot;curved&quot;:0,&quot;rounded&quot;:0};" parent="18WVjn5391nZx_TQ4POn-198" vertex="1">
          <mxGeometry x="55" y="80" width="10" height="170" as="geometry" />
        </mxCell>
        <mxCell id="18WVjn5391nZx_TQ4POn-200" value="Database" style="shape=umlLifeline;perimeter=lifelinePerimeter;whiteSpace=wrap;html=1;container=0;dropTarget=0;collapsible=0;recursiveResize=0;outlineConnect=0;portConstraint=eastwest;newEdgeStyle={&quot;edgeStyle&quot;:&quot;elbowEdgeStyle&quot;,&quot;elbow&quot;:&quot;vertical&quot;,&quot;curved&quot;:0,&quot;rounded&quot;:0};" parent="1" vertex="1">
          <mxGeometry x="-10" y="3710" width="100" height="300" as="geometry" />
        </mxCell>
        <mxCell id="18WVjn5391nZx_TQ4POn-201" value="" style="html=1;points=[];perimeter=orthogonalPerimeter;outlineConnect=0;targetShapes=umlLifeline;portConstraint=eastwest;newEdgeStyle={&quot;edgeStyle&quot;:&quot;elbowEdgeStyle&quot;,&quot;elbow&quot;:&quot;vertical&quot;,&quot;curved&quot;:0,&quot;rounded&quot;:0};" parent="18WVjn5391nZx_TQ4POn-200" vertex="1">
          <mxGeometry x="45" y="80" width="10" height="170" as="geometry" />
        </mxCell>
        <mxCell id="18WVjn5391nZx_TQ4POn-202" value="" style="edgeStyle=elbowEdgeStyle;rounded=0;orthogonalLoop=1;jettySize=auto;html=1;elbow=vertical;curved=0;" parent="1" edge="1">
          <mxGeometry relative="1" as="geometry">
            <Array as="points">
              <mxPoint x="-350" y="3810" />
            </Array>
            <mxPoint x="-445" y="3810" as="sourcePoint" />
            <mxPoint x="-205" y="3810" as="targetPoint" />
          </mxGeometry>
        </mxCell>
        <mxCell id="18WVjn5391nZx_TQ4POn-203" value="2: Request pending orders by zone" style="edgeLabel;html=1;align=center;verticalAlign=middle;resizable=0;points=[];" parent="18WVjn5391nZx_TQ4POn-202" vertex="1" connectable="0">
          <mxGeometry x="-0.0246" relative="1" as="geometry">
            <mxPoint y="-10" as="offset" />
          </mxGeometry>
        </mxCell>
        <mxCell id="18WVjn5391nZx_TQ4POn-204" style="edgeStyle=elbowEdgeStyle;rounded=0;orthogonalLoop=1;jettySize=auto;html=1;elbow=vertical;curved=0;" parent="1" source="18WVjn5391nZx_TQ4POn-199" edge="1">
          <mxGeometry relative="1" as="geometry">
            <mxPoint x="35" y="3820" as="targetPoint" />
            <Array as="points">
              <mxPoint x="10" y="3820" />
              <mxPoint x="-200" y="3840" />
            </Array>
            <mxPoint x="-180" y="3820" as="sourcePoint" />
          </mxGeometry>
        </mxCell>
        <mxCell id="18WVjn5391nZx_TQ4POn-205" value="&lt;div&gt;3: Check pending orders&lt;/div&gt;" style="edgeLabel;html=1;align=center;verticalAlign=middle;resizable=0;points=[];" parent="18WVjn5391nZx_TQ4POn-204" vertex="1" connectable="0">
          <mxGeometry x="-0.2507" y="2" relative="1" as="geometry">
            <mxPoint x="29" y="-8" as="offset" />
          </mxGeometry>
        </mxCell>
        <mxCell id="18WVjn5391nZx_TQ4POn-206" value="5: Show pending orders" style="html=1;verticalAlign=bottom;endArrow=open;dashed=1;endSize=8;edgeStyle=elbowEdgeStyle;elbow=horizontal;curved=0;rounded=0;" parent="1" edge="1">
          <mxGeometry relative="1" as="geometry">
            <mxPoint x="-445" y="3900" as="targetPoint" />
            <Array as="points">
              <mxPoint x="-355" y="3900" />
            </Array>
            <mxPoint x="-205" y="3900" as="sourcePoint" />
            <mxPoint as="offset" />
          </mxGeometry>
        </mxCell>
        <mxCell id="18WVjn5391nZx_TQ4POn-207" value="4: Orders obtained&amp;nbsp;" style="html=1;verticalAlign=bottom;endArrow=open;dashed=1;endSize=8;edgeStyle=elbowEdgeStyle;elbow=vertical;curved=0;rounded=0;" parent="1" source="18WVjn5391nZx_TQ4POn-201" target="18WVjn5391nZx_TQ4POn-199" edge="1">
          <mxGeometry relative="1" as="geometry">
            <mxPoint x="-180" y="3870" as="targetPoint" />
            <Array as="points">
              <mxPoint x="-65" y="3870" />
            </Array>
            <mxPoint x="30" y="3870" as="sourcePoint" />
            <mxPoint as="offset" />
          </mxGeometry>
        </mxCell>
      </root>
    </mxGraphModel>
  </diagram>
</mxfile>
